<svg xmlns="http://www.w3.org/2000/svg" viewBox="2396.313 89.565 989.6 820.87"><switch><g fill="#492CDD"><path d="M2501.534 554.232h341.253v25.297h-341.253v-25.297zm441.811 0h341.253v25.297h-341.253v-25.297z"/><path d="M3361.57 106.561l-1.1-.932-.114-.094a65.311 65.311 0 0 0-39.037-15.74 71.84 71.84 0 0 0-5.417-.229h-849.585c-1.82 0-3.628 0-5.421.229a65.303 65.303 0 0 0-39.029 15.74l-.12.094-1.087.932a69.85 69.85 0 0 0-24.348 52.934V840.58c.133 38.586 31.422 69.807 70.006 69.855h849.594c38.58-.051 69.874-31.27 70-69.855V159.492a69.863 69.863 0 0 0-24.352-52.933l.01.002zm-624.813 82.545c0 15-12.159 27.162-27.17 27.162-14.999 0-27.159-12.16-27.159-27.162 0-15.008 12.16-27.17 27.159-27.17 14.974.058 27.07 12.204 27.07 27.17h.1zm-89.743 0c0 15-12.172 27.162-27.166 27.162-15.004 0-27.17-12.16-27.17-27.162 0-15.008 12.164-27.17 27.17-27.17 14.965.058 27.069 12.204 27.069 27.17h.097zm-89.733 0c0 15-12.158 27.162-27.166 27.162-14.993 0-27.154-12.16-27.154-27.162 0-15.008 12.16-27.17 27.154-27.17 14.973.058 27.076 12.204 27.076 27.17h.1-.01zm758.63 682.523h-849.594c-17.166-.006-31.112-13.881-31.198-31.049V288.512h911.994V840.58c-.1 17.168-14.032 31.043-31.202 31.051v-.002z"/></g></switch></svg>