<svg xmlns="http://www.w3.org/2000/svg" viewBox="5.195 89.565 989.6 820.87"><switch><g fill="#492CDD"><path d="M970.453 106.56l-1.1-.932-.114-.093a65.305 65.305 0 0 0-39.037-15.74 71.317 71.317 0 0 0-5.417-.23H75.2c-1.82 0-3.628 0-5.42.23a65.298 65.298 0 0 0-39.03 15.74l-.12.093-1.087.932a69.85 69.85 0 0 0-24.348 52.934V840.58c.133 38.585 31.422 69.807 70.006 69.854h849.594c38.58-.05 69.874-31.27 70-69.854V159.492a69.863 69.863 0 0 0-24.352-52.933l.01.001zM345.64 189.106c0 15-12.159 27.162-27.17 27.162-15 0-27.16-12.16-27.16-27.162 0-15.008 12.16-27.17 27.16-27.17 14.974.058 27.07 12.204 27.07 27.17h.1zm-89.744 0c0 15-12.172 27.162-27.166 27.162-15.004 0-27.17-12.16-27.17-27.162 0-15.008 12.165-27.17 27.17-27.17 14.965.058 27.07 12.204 27.07 27.17h.096zm-89.732 0c0 15-12.158 27.162-27.166 27.162-14.993 0-27.154-12.16-27.154-27.162 0-15.008 12.16-27.17 27.154-27.17 14.973.058 27.076 12.204 27.076 27.17h.1-.01zm758.63 682.523H75.2c-17.166-.007-31.112-13.882-31.198-31.05V288.512h911.994V840.58c-.1 17.167-14.032 31.042-31.202 31.049z"/><path d="M500.003 412.211c-97.491 0-176.792 79.301-176.792 176.789s79.301 176.789 176.792 176.789c97.485 0 176.786-79.301 176.786-176.789s-79.301-176.789-176.786-176.789zM345.311 589c0-38.675 14.37-73.995 37.924-101.145L601.146 705.77c-27.15 23.55-62.471 37.92-101.142 37.92-85.297-.001-154.693-69.396-154.693-154.69zm271.461 101.146L398.855 472.231c27.149-23.55 62.47-37.92 101.148-37.92 85.291 0 154.693 69.396 154.693 154.689 0 38.675-14.377 73.995-37.924 101.146z"/></g></switch></svg>