<svg xmlns="http://www.w3.org/2000/svg" width="1000" height="1000" xmlns:v="https://vecta.io/nano"><path fill="#492cdd" d="M970.453 106.56l-1.1-.932-.114-.093c-10.92-9.415-24.645-14.943-39.037-15.74-1.788-.136-3.592-.23-5.417-.23H75.2c-1.82 0-3.628 0-5.42.23-14.388.797-28.108 6.325-39.03 15.74l-.12.093-1.087.932a69.85 69.85 0 0 0-24.348 52.934V840.58c.133 38.585 31.422 69.807 70.006 69.855h849.594c38.58-.05 69.874-31.27 70-69.855V159.492c-.022-20.35-8.913-39.675-24.352-52.933zM345.64 189.106c0 15-12.16 27.162-27.17 27.162-15 0-27.16-12.16-27.16-27.162 0-15.008 12.16-27.17 27.16-27.17 14.973.058 27.07 12.204 27.07 27.17h.1zm-89.744 0c0 15-12.172 27.162-27.166 27.162-15.004 0-27.17-12.16-27.17-27.162 0-15.008 12.165-27.17 27.17-27.17 14.965.058 27.07 12.204 27.07 27.17h.097zm-89.732 0c0 15-12.158 27.162-27.166 27.162-14.993 0-27.154-12.16-27.154-27.162 0-15.008 12.16-27.17 27.154-27.17 14.973.058 27.076 12.204 27.076 27.17h.1zm758.63 682.523H75.2c-17.166-.007-31.112-13.882-31.198-31.05V288.512h911.994V840.58c-.1 17.167-14.032 31.042-31.202 31.05z"/><path fill="none" stroke="#492cdd" stroke-width="18.357" stroke-miterlimit="10" d="M566.084 882.277V256.904"/><path d="M644.032 525.535H889.43v12.85H644.032zm0 56.295H889.43v12.85H644.032zm0 56.297H889.43v12.85H644.032zm-550.7-112.592h417.95v12.85H93.333zm0 56.295h309.66v12.85H93.333zm0 56.297h417.95v12.85H93.333z" fill="#492cdd"/></svg>