<svg xmlns="http://www.w3.org/2000/svg" width="1000" height="1000" xmlns:v="https://vecta.io/nano"><style><![CDATA[.B{fill:#492cdd}.C{font-family:Helvetica-Bold}.D{font-size:175.623px}]]></style><path d="M968.85 107.902l-1.2-1.026a65.07 65.07 0 0 0-38.904-15.682l-5.4-.232h-846.7l-5.4.232a65.05 65.05 0 0 0-38.896 15.682l-.122.097-1.082.93a69.6 69.6 0 0 0-24.265 52.752V839.42c.132 38.454 31.313 69.568 69.767 69.618h846.697c38.45-.05 69.635-31.164 69.772-69.618V160.654c-.02-20.28-8.883-39.542-24.268-52.752zM346.165 190.17c0 14.95-12.12 27.07-27.077 27.07-14.95 0-27.07-12.12-27.07-27.07 0-14.957 12.12-27.077 27.07-27.077 14.92.054 26.978 12.162 26.978 27.077h.1zm-89.437 0c0 14.95-12.13 27.07-27.072 27.07-14.954 0-27.077-12.12-27.077-27.07a27.08 27.08 0 0 1 27.077-27.077c14.913.054 26.976 12.162 26.976 27.077h.096zm-89.427 0c0 14.95-12.115 27.07-27.072 27.07-14.942 0-27.063-12.12-27.063-27.07 0-14.957 12.12-27.077 27.063-27.077 14.92.054 26.983 12.162 26.983 27.077h.09zm756.045 680.193H76.648c-17.107-.008-31.006-13.835-31.092-30.943V289.235h908.886V839.42c-.1 17.108-13.985 30.935-31.096 30.943z" class="B"/><path d="M269.494 880.974v-623.24M500 880.974v-623.24m226.846 623.24v-623.24" fill="none" stroke="#492cdd" stroke-width="18.294" stroke-miterlimit="10"/><text transform="translate(107.52 634.913)" class="B C D">1</text><text transform="translate(338.025 634.913)" class="B C D">2</text><text transform="translate(564.87 634.913)" class="B C D">3</text><text transform="translate(799.035 634.913)" class="B C D">4</text></svg>