<svg xmlns="http://www.w3.org/2000/svg" width="1000" height="1000" xmlns:v="https://vecta.io/nano"><path fill="#492cdd" d="M968.85 107.902l-1.2-1.026a65.07 65.07 0 0 0-38.904-15.682 70.45 70.45 0 0 0-5.402-.232H76.648l-5.402.232a65.05 65.05 0 0 0-38.896 15.682l-.12.097-1.083.93c-15.4 13.2-24.247 32.472-24.265 52.752V839.42c.132 38.454 31.314 69.568 69.768 69.618h846.695c38.453-.05 69.637-31.164 69.775-69.618V160.654c-.02-20.28-8.883-39.542-24.27-52.752zM346.168 190.17c0 14.95-12.12 27.07-27.077 27.07-14.95 0-27.07-12.12-27.07-27.07 0-14.957 12.12-27.077 27.07-27.077 14.92.054 26.977 12.162 26.977 27.077h.1zm-89.44 0c0 14.95-12.127 27.07-27.07 27.07-14.955 0-27.078-12.12-27.078-27.07 0-14.957 12.123-27.077 27.078-27.077 14.915.054 26.978 12.162 26.978 27.077h.092zm-89.426 0c0 14.95-12.117 27.07-27.074 27.07-14.94 0-27.063-12.12-27.063-27.07 0-14.957 12.12-27.077 27.063-27.077 14.922.054 26.984 12.162 26.984 27.077h.1zm756.043 680.193H76.648c-17.108-.008-31.008-13.835-31.093-30.943V289.235h908.888V839.42c-.1 17.108-13.984 30.935-31.1 30.943z"/><text transform="translate(451.162 648.889)" fill="#492cdd" font-family="Helvetica-Bold" font-size="175.623">1</text></svg>