<svg xmlns="http://www.w3.org/2000/svg" width="1000" height="1000" xmlns:v="https://vecta.io/nano"><style><![CDATA[.B{fill:#492cdd}.C{font-family:Helvetica-Bold}.D{font-size:175.623px}]]></style><path d="M968.85 107.902l-1.2-1.026c-10.885-9.38-24.56-14.893-38.904-15.682-1.78-.137-3.578-.232-5.398-.232h-846.7c-1.814 0-3.615 0-5.4.232a65.05 65.05 0 0 0-38.896 15.682l-.122.097-1.082.93c-15.4 13.2-24.247 32.472-24.265 52.752V839.42c.13 38.454 31.313 69.568 69.766 69.618h846.698c38.45-.05 69.635-31.164 69.77-69.618V160.654c-.02-20.28-8.883-39.542-24.267-52.752zM346.166 190.17c0 14.95-12.12 27.07-27.078 27.07-14.95 0-27.068-12.12-27.068-27.07 0-14.957 12.12-27.077 27.068-27.077 14.922.054 26.978 12.162 26.978 27.077h.1zm-89.438 0c0 14.95-12.13 27.07-27.073 27.07-14.954 0-27.077-12.12-27.077-27.07a27.08 27.08 0 0 1 27.077-27.077c14.913.054 26.976 12.162 26.976 27.077h.097zm-89.428 0c0 14.95-12.115 27.07-27.072 27.07-14.942 0-27.063-12.12-27.063-27.07 0-14.957 12.12-27.077 27.063-27.077 14.922.054 26.984 12.162 26.984 27.077h.088zm756.046 680.193H76.648c-17.107-.008-31.006-13.835-31.092-30.943V289.235H954.44V839.42c-.1 17.108-13.982 30.935-31.095 30.943z" class="B"/><path fill="none" stroke="#492cdd" stroke-width="18.294" stroke-miterlimit="10" d="M346.623 257.735h306.754v623.238H346.623z"/><text transform="translate(141.645 642.231)" class="B C D">1</text><text transform="translate(456.303 642.231)" class="B C D">2</text><text transform="translate(759.986 642.231)" class="B C D">3</text></svg>